<svg width="24" height="24" viewBox="0 0 24 24" fill="none" xmlns="http://www.w3.org/2000/svg">
<g clip-path="url(#clip0_9_69)">
<path d="M9.69228 0.144012C6.90735 0.144012 4.67258 2.05663 4.67258 5.71201C4.67258 8.09909 5.62335 10.5305 7.06705 12.0286C7.63012 13.5268 6.61474 14.0843 6.40428 14.1637C3.49012 15.2326 0.0858154 17.1711 0.0858154 19.0966V19.8166C0.0858154 22.4409 5.08335 23.0474 9.71997 23.0474C10.7306 23.0457 11.7408 23.0075 12.7486 22.9329C11.4866 21.6009 10.7847 19.8349 10.788 18C10.788 16.3468 11.351 14.832 12.287 13.6154C12.1486 13.2905 12.0932 12.7782 12.3452 12C13.7806 10.5 14.711 8.08986 14.711 5.71109C14.711 2.05663 12.4735 0.144936 9.69135 0.144936L9.69228 0.144012ZM18 12.1726C16.4546 12.1726 14.9725 12.7865 13.8797 13.8793C12.787 14.9721 12.173 16.4542 12.173 17.9995C12.173 19.5449 12.787 21.027 13.8797 22.1198C14.9725 23.2126 16.4546 23.8265 18 23.8265C19.5454 23.8265 21.0275 23.2126 22.1202 22.1198C23.213 21.027 23.8269 19.5449 23.8269 17.9995C23.8269 16.4542 23.213 14.9721 22.1202 13.8793C21.0275 12.7865 19.5454 12.1726 18 12.1726ZM17.1923 14.7692H18.8077V17.1637H21.2021V18.8363H18.8077V21.2308H17.1923V18.8363H14.7692V17.1637H17.1923V14.7692Z" fill="white"/>
</g>
<defs>
<clipPath id="clip0_9_69">
<rect width="24" height="24" fill="white"/>
</clipPath>
</defs>
</svg>
