<svg width="31" height="31" viewBox="0 0 31 31" fill="none" xmlns="http://www.w3.org/2000/svg">
<g clip-path="url(#clip0_9_11)">
<path d="M10.7992 1.01961C7.70177 2.09412 5.03059 4.13357 3.17797 6.83841C1.32535 9.54325 0.388942 12.7709 0.506284 16.0473C0.623626 19.3236 1.78854 22.476 3.82991 25.0414C5.87128 27.6068 8.68151 29.4499 11.8478 30.3001C14.4148 30.9625 17.1043 30.9915 19.685 30.3848C22.0229 29.8597 24.1843 28.7364 25.9577 27.125C27.8033 25.3966 29.143 23.1979 29.8327 20.7652C30.582 18.1196 30.7154 15.3376 30.2226 12.6325H15.8076V18.6121H24.1558C23.9889 19.5658 23.6314 20.4761 23.1046 21.2884C22.5777 22.1007 21.8924 22.7983 21.0897 23.3396C20.0704 24.0142 18.9212 24.4679 17.716 24.6716C16.5074 24.8964 15.2676 24.8964 14.059 24.6716C12.8339 24.4186 11.675 23.913 10.6563 23.187C9.01943 22.0284 7.7904 20.3823 7.14454 18.4838C6.48795 16.5496 6.48795 14.4528 7.14454 12.5187C7.60428 11.1629 8.36428 9.92856 9.36782 8.90766C10.5163 7.7179 11.9702 6.86746 13.5702 6.44964C15.1701 6.03181 16.8542 6.06275 18.4377 6.53906C19.6748 6.91863 20.8061 7.58211 21.7412 8.47656C22.6825 7.5401 23.6222 6.60122 24.5602 5.65992C25.0446 5.15375 25.5726 4.6718 26.0497 4.15352C24.6221 2.82516 22.9464 1.79147 21.1188 1.11164C17.7904 -0.0968994 14.1485 -0.129378 10.7992 1.01961Z" fill="white"/>
<path d="M10.7991 1.01961C14.1483 -0.130159 17.7901 -0.0985351 21.1187 1.10922C22.9467 1.79367 24.6216 2.83233 26.0473 4.16563C25.5629 4.68391 25.0519 5.16828 24.5578 5.67203C23.6181 6.6101 22.6792 7.54495 21.7412 8.47656C20.8061 7.58211 19.6748 6.91863 18.4377 6.53906C16.8547 6.06108 15.1707 6.02836 13.5703 6.44447C11.9699 6.86058 10.5151 7.70946 9.36538 8.89797C8.36184 9.91888 7.60183 11.1533 7.1421 12.509L2.12155 8.62187C3.9186 5.05823 7.03008 2.33232 10.7991 1.01961Z" fill="#E33629"/>
<path d="M0.789533 12.4727C1.05918 11.1352 1.5072 9.84006 2.12156 8.62188L7.14211 12.5187C6.48552 14.4528 6.48552 16.5496 7.14211 18.4838C5.4694 19.7754 3.79589 21.0735 2.12156 22.3781C0.584038 19.3176 0.11512 15.8306 0.789533 12.4727Z" fill="#F8BD00"/>
<path d="M15.8076 12.6301H30.2226C30.7154 15.3352 30.582 18.1172 29.8326 20.7627C29.143 23.1955 27.8033 25.3942 25.9576 27.1226C24.3374 25.8584 22.7099 24.6038 21.0897 23.3396C21.893 22.7978 22.5786 22.0994 23.1054 21.2862C23.6323 20.473 23.9895 19.5618 24.1558 18.6073H15.8076C15.8051 16.6165 15.8076 14.6233 15.8076 12.6301Z" fill="#587DBD"/>
<path d="M2.11914 22.3781C3.79346 21.0865 5.46698 19.7883 7.13969 18.4837C7.78683 20.383 9.01762 22.0291 10.6562 23.187C11.6782 23.9096 12.8396 24.4112 14.0663 24.6595C15.2749 24.8843 16.5146 24.8843 17.7233 24.6595C18.9285 24.4558 20.0777 24.0021 21.097 23.3275C22.7172 24.5917 24.3447 25.8462 25.9649 27.1105C24.1918 28.7228 22.0304 29.8469 19.6923 30.3727C17.1115 30.9794 14.4221 30.9503 11.8551 30.288C9.82482 29.7459 7.92843 28.7903 6.28477 27.481C4.5452 26.0996 3.1243 24.359 2.11914 22.3781Z" fill="#319F43"/>
</g>
<defs>
<clipPath id="clip0_9_11">
<rect width="31" height="31" fill="white"/>
</clipPath>
</defs>
</svg>
